{"accessors": [{"bufferView": 2, "componentType": 5126, "count": 112, "max": [0.12089985609054565, 2.7940170764923096, 0.11820700019598007], "min": [-0.12089985609054565, 2.4347000122070312, -0.22345300018787384], "type": "VEC3"}, {"bufferView": 2, "byteOffset": 1344, "componentType": 5126, "count": 112, "max": [0.9943437576293945, 0.9988719820976257, 0.9839329123497009], "min": [-0.9943437576293945, -0.9895867705345154, -0.9998153448104858], "type": "VEC3"}, {"bufferView": 1, "componentType": 5126, "count": 112, "max": [0.46875, 0.9921879768371582], "min": [0.0039059999398887157, 0.4648439884185791], "type": "VEC2"}, {"bufferView": 0, "componentType": 5125, "count": 456, "type": "SCALAR"}, {"bufferView": 2, "byteOffset": 2688, "componentType": 5126, "count": 23, "max": [0.8522300124168396, 1.664700984954834, 0.2247059941291809], "min": [0.6821939945220947, 1.4635729789733887, 0.03741699829697609], "type": "VEC3"}, {"bufferView": 2, "byteOffset": 2964, "componentType": 5126, "count": 23, "max": [0.7616685032844543, 0.9412553310394287, 0.7233285903930664], "min": [-0.9747978448867798, -0.925064742565155, -0.8495247960090637], "type": "VEC3"}, {"bufferView": 1, "byteOffset": 896, "componentType": 5126, "count": 23, "max": [0.2695310115814209, 0.4648439884185791], "min": [0.0039059999398887157, 0.3046880066394806], "type": "VEC2"}, {"bufferView": 0, "byteOffset": 1824, "componentType": 5125, "count": 54, "type": "SCALAR"}, {"bufferView": 2, "byteOffset": 3240, "componentType": 5126, "count": 23, "max": [0.7505559921264648, 1.9968270063400269, 0.12475500255823135], "min": [0.43887999653816223, 1.601631999015808, -0.12306100130081177], "type": "VEC3"}, {"bufferView": 2, "byteOffset": 3516, "componentType": 5126, "count": 23, "max": [0.9668974280357361, 0.8229472637176514, 0.9581079483032227], "min": [-0.9952182173728943, -0.7833476066589355, -0.9622505307197571], "type": "VEC3"}, {"bufferView": 1, "byteOffset": 1080, "componentType": 5126, "count": 23, "max": [0.7617189884185791, 0.2421880066394806], "min": [0.5664060115814209, 0.0039059999398887157], "type": "VEC2"}, {"bufferView": 0, "byteOffset": 2040, "componentType": 5125, "count": 72, "type": "SCALAR"}, {"bufferView": 2, "byteOffset": 3792, "componentType": 5126, "count": 28, "max": [0.6014140248298645, 2.3404970169067383, 0.04820000007748604], "min": [0.14899000525474548, 1.8731509447097778, -0.2232239991426468], "type": "VEC3"}, {"bufferView": 2, "byteOffset": 4128, "componentType": 5126, "count": 28, "max": [0.9885868430137634, 0.8934869170188904, 0.9973601698875427], "min": [-0.9857692718505859, -0.8935796022415161, -0.986576497554779], "type": "VEC3"}, {"bufferView": 1, "byteOffset": 1264, "componentType": 5126, "count": 28, "max": [0.5585939884185791, 0.2382809966802597], "min": [0.3085939884185791, 0.0039059999398887157], "type": "VEC2"}, {"bufferView": 0, "byteOffset": 2328, "componentType": 5125, "count": 96, "type": "SCALAR"}, {"bufferView": 2, "byteOffset": 4464, "componentType": 5126, "count": 23, "max": [-0.6821939945220947, 1.664700984954834, 0.2247059941291809], "min": [-0.8522300124168396, 1.4635729789733887, 0.03741699829697609], "type": "VEC3"}, {"bufferView": 2, "byteOffset": 4740, "componentType": 5126, "count": 23, "max": [0.974797785282135, 0.9412553310394287, 0.7233285903930664], "min": [-0.7616685032844543, -0.9250646829605103, -0.8495247960090637], "type": "VEC3"}, {"bufferView": 1, "byteOffset": 1488, "componentType": 5126, "count": 23, "max": [0.2695310115814209, 0.4648439884185791], "min": [0.0039059999398887157, 0.3046880066394806], "type": "VEC2"}, {"bufferView": 0, "byteOffset": 2712, "componentType": 5125, "count": 54, "type": "SCALAR"}, {"bufferView": 2, "byteOffset": 5016, "componentType": 5126, "count": 23, "max": [-0.43887999653816223, 1.9968270063400269, 0.12475500255823135], "min": [-0.7505559921264648, 1.601631999015808, -0.12306100130081177], "type": "VEC3"}, {"bufferView": 2, "byteOffset": 5292, "componentType": 5126, "count": 23, "max": [0.9952182769775391, 0.8229472637176514, 0.9581080675125122], "min": [-0.9668974280357361, -0.7833477258682251, -0.9622505307197571], "type": "VEC3"}, {"bufferView": 1, "byteOffset": 1672, "componentType": 5126, "count": 23, "max": [0.7617189884185791, 0.2421880066394806], "min": [0.5664060115814209, 0.0039059999398887157], "type": "VEC2"}, {"bufferView": 0, "byteOffset": 2928, "componentType": 5125, "count": 72, "type": "SCALAR"}, {"bufferView": 2, "byteOffset": 5568, "componentType": 5126, "count": 28, "max": [-0.14899000525474548, 2.3404970169067383, 0.04820000007748604], "min": [-0.6014140248298645, 1.8731509447097778, -0.2232239991426468], "type": "VEC3"}, {"bufferView": 2, "byteOffset": 5904, "componentType": 5126, "count": 28, "max": [0.9857692718505859, 0.8934869170188904, 0.9973601698875427], "min": [-0.9885868430137634, -0.8935796022415161, -0.986576497554779], "type": "VEC3"}, {"bufferView": 1, "byteOffset": 1856, "componentType": 5126, "count": 28, "max": [0.5585939884185791, 0.2382809966802597], "min": [0.3085939884185791, 0.0039059999398887157], "type": "VEC2"}, {"bufferView": 0, "byteOffset": 3216, "componentType": 5125, "count": 96, "type": "SCALAR"}, {"bufferView": 2, "byteOffset": 6240, "componentType": 5126, "count": 97, "max": [0.29796698689460754, 2.5239410400390625, 0.19307400286197662], "min": [-0.29796698689460754, 1.5209510326385498, -0.25855401158332825], "type": "VEC3"}, {"bufferView": 2, "byteOffset": 7404, "componentType": 5126, "count": 97, "max": [0.9981454610824585, 0.9757373929023743, 0.9994538426399231], "min": [-0.9981454610824585, -0.9958380460739136, -0.9883241057395935], "type": "VEC3"}, {"bufferView": 1, "byteOffset": 2080, "componentType": 5126, "count": 97, "max": [0.9960939884185791, 0.9960939884185791], "min": [0.4804689884185791, 0.4375], "type": "VEC2"}, {"bufferView": 0, "byteOffset": 3600, "componentType": 5125, "count": 372, "type": "SCALAR"}, {"bufferView": 2, "byteOffset": 8568, "componentType": 5126, "count": 38, "max": [0.36610299348831177, 0.20805199444293976, 0.20777399837970734], "min": [0.15938200056552887, -0.0006520000169984996, -0.18422099947929382], "type": "VEC3"}, {"bufferView": 2, "byteOffset": 9024, "componentType": 5126, "count": 38, "max": [0.9576538801193237, 0.9979984760284424, 0.7433534860610962], "min": [-0.9956899285316467, -0.7588079571723938, -0.7229932546615601], "type": "VEC3"}, {"bufferView": 1, "byteOffset": 2856, "componentType": 5126, "count": 38, "max": [0.625, 0.5625], "min": [0.2773439884185791, 0.25], "type": "VEC2"}, {"bufferView": 0, "byteOffset": 5088, "componentType": 5125, "count": 90, "type": "SCALAR"}, {"bufferView": 2, "byteOffset": 9480, "componentType": 5126, "count": 21, "max": [0.3359229862689972, 0.8817149996757507, 0.04800700023770332], "min": [0.050269998610019684, 0.1789969950914383, -0.2407580018043518], "type": "VEC3"}, {"bufferView": 2, "byteOffset": 9732, "componentType": 5126, "count": 21, "max": [0.998959481716156, 0.9915375113487244, 0.9975537657737732], "min": [-0.9965330958366394, -0.6378922462463379, -0.99908447265625], "type": "VEC3"}, {"bufferView": 1, "byteOffset": 3160, "componentType": 5126, "count": 21, "max": [0.9960939884185791, 0.2578119933605194], "min": [0.7734379768371582, 0.0039059999398887157], "type": "VEC2"}, {"bufferView": 0, "byteOffset": 5448, "componentType": 5125, "count": 66, "type": "SCALAR"}, {"bufferView": 2, "byteOffset": 9984, "componentType": 5126, "count": 23, "max": [0.30942800641059875, 1.473546028137207, 0.13314500451087952], "min": [-0.025348000228405, 0.6516219973564148, -0.2152079939842224], "type": "VEC3"}, {"bufferView": 2, "byteOffset": 10260, "componentType": 5126, "count": 23, "max": [0.9981917142868042, 0.9986174702644348, 0.9942979216575623], "min": [-0.9905169606208801, -0.9979891777038574, -0.9997649788856506], "type": "VEC3"}, {"bufferView": 1, "byteOffset": 3328, "componentType": 5126, "count": 23, "max": [0.3007810115814209, 0.3007810115814209], "min": [0.0039059999398887157, 0.0039059999398887157], "type": "VEC2"}, {"bufferView": 0, "byteOffset": 5712, "componentType": 5125, "count": 72, "type": "SCALAR"}, {"bufferView": 2, "byteOffset": 10536, "componentType": 5126, "count": 38, "max": [-0.15938200056552887, 0.20805199444293976, 0.20777399837970734], "min": [-0.36610299348831177, -0.0006520000169984996, -0.18422099947929382], "type": "VEC3"}, {"bufferView": 2, "byteOffset": 10992, "componentType": 5126, "count": 38, "max": [0.9956899285316467, 0.9979984760284424, 0.7433534264564514], "min": [-0.9576539397239685, -0.758807897567749, -0.7229933142662048], "type": "VEC3"}, {"bufferView": 1, "byteOffset": 3512, "componentType": 5126, "count": 38, "max": [0.625, 0.5625], "min": [0.2773439884185791, 0.25], "type": "VEC2"}, {"bufferView": 0, "byteOffset": 6000, "componentType": 5125, "count": 90, "type": "SCALAR"}, {"bufferView": 2, "byteOffset": 11448, "componentType": 5126, "count": 21, "max": [-0.050269998610019684, 0.8817149996757507, 0.04800700023770332], "min": [-0.3359229862689972, 0.1789969950914383, -0.2407580018043518], "type": "VEC3"}, {"bufferView": 2, "byteOffset": 11700, "componentType": 5126, "count": 21, "max": [0.9965330958366394, 0.9915375113487244, 0.9975537657737732], "min": [-0.998959481716156, -0.6378922462463379, -0.99908447265625], "type": "VEC3"}, {"bufferView": 1, "byteOffset": 3816, "componentType": 5126, "count": 21, "max": [0.9960939884185791, 0.2578119933605194], "min": [0.7734379768371582, 0.0039059999398887157], "type": "VEC2"}, {"bufferView": 0, "byteOffset": 6360, "componentType": 5125, "count": 66, "type": "SCALAR"}, {"bufferView": 2, "byteOffset": 11952, "componentType": 5126, "count": 23, "max": [0.025348000228405, 1.473546028137207, 0.13314500451087952], "min": [-0.30942800641059875, 0.6516219973564148, -0.2152079939842224], "type": "VEC3"}, {"bufferView": 2, "byteOffset": 12228, "componentType": 5126, "count": 23, "max": [0.9905169606208801, 0.9986174702644348, 0.9942979216575623], "min": [-0.9981917142868042, -0.9979891777038574, -0.9997649788856506], "type": "VEC3"}, {"bufferView": 1, "byteOffset": 3984, "componentType": 5126, "count": 23, "max": [0.3007810115814209, 0.3007810115814209], "min": [0.0039059999398887157, 0.0039059999398887157], "type": "VEC2"}, {"bufferView": 0, "byteOffset": 6624, "componentType": 5125, "count": 72, "type": "SCALAR"}, {"bufferView": 2, "byteOffset": 12504, "componentType": 5126, "count": 63, "max": [0.2777799963951111, 1.7187880277633667, 0.1495780050754547], "min": [-0.2777799963951111, 1.282310962677002, -0.2534700036048889], "type": "VEC3"}, {"bufferView": 2, "byteOffset": 13260, "componentType": 5126, "count": 63, "max": [1.0, 0.9023395776748657, 0.9996275305747986], "min": [-0.995116651058197, -0.9994385838508606, -0.9806444048881531], "type": "VEC3"}, {"bufferView": 1, "byteOffset": 4168, "componentType": 5126, "count": 63, "max": [0.9960939884185791, 0.9960939884185791], "min": [0.0039059999398887157, 0.2539060115814209], "type": "VEC2"}, {"bufferView": 0, "byteOffset": 6912, "componentType": 5125, "count": 198, "type": "SCALAR"}, {"bufferView": 3, "componentType": 5126, "count": 21, "max": [1.0, 0.0, 0.0, 0.0, 0.0, 1.0, 0.0, 0.0, 0.0, 0.0, 1.0, 0.0, 0.0, 0.0, 0.0, 1.0], "min": [1.0, 0.0, 0.0, 0.0, 0.0, 1.0, 0.0, 0.0, 0.0, 0.0, 1.0, 0.0, 0.0, 0.0, 0.0, 1.0], "type": "MAT4"}], "asset": {"extras": {"author": "teodor.ibrahimov (https://sketchfab.com/teodor.ibrahimov)", "license": "CC-BY-4.0 (http://creativecommons.org/licenses/by/4.0/)", "source": "https://sketchfab.com/3d-models/psx-swat-guy-rigged-4fd683169d3b4f9fbc2d993e37a2165c", "title": "psx swat guy rigged"}, "generator": "Sketchfab-16.28.0", "version": "2.0"}, "bufferViews": [{"buffer": 0, "byteLength": 7704, "name": "floatBufferViews", "target": 34963}, {"buffer": 0, "byteLength": 4672, "byteOffset": 7704, "byteStride": 8, "name": "floatBufferViews", "target": 34962}, {"buffer": 0, "byteLength": 14016, "byteOffset": 12376, "byteStride": 12, "name": "floatBufferViews", "target": 34962}, {"buffer": 0, "byteLength": 1344, "byteOffset": 26392, "name": "floatBufferViews"}], "buffers": [{"byteLength": 27736, "uri": "scene.bin"}], "images": [{"uri": "textures/Material.002_baseColor.png"}], "materials": [{"doubleSided": true, "name": "Material.002", "pbrMetallicRoughness": {"baseColorTexture": {"index": 0}, "metallicFactor": 0.0}}], "meshes": [{"name": "head_Cube.001_Material.002_0", "primitives": [{"attributes": {"NORMAL": 1, "POSITION": 0, "TEXCOORD_0": 2}, "indices": 3, "material": 0, "mode": 4}]}, {"name": "hand.l_Cube.001_Material.002_0", "primitives": [{"attributes": {"NORMAL": 5, "POSITION": 4, "TEXCOORD_0": 6}, "indices": 7, "material": 0, "mode": 4}]}, {"name": "arm.lo.l_Cube.001_Material.002_0", "primitives": [{"attributes": {"NORMAL": 9, "POSITION": 8, "TEXCOORD_0": 10}, "indices": 11, "material": 0, "mode": 4}]}, {"name": "arm.hi.l_Cube.002_Material.002_0", "primitives": [{"attributes": {"NORMAL": 13, "POSITION": 12, "TEXCOORD_0": 14}, "indices": 15, "material": 0, "mode": 4}]}, {"name": "hand.r_Cube.001_Material.002_0", "primitives": [{"attributes": {"NORMAL": 17, "POSITION": 16, "TEXCOORD_0": 18}, "indices": 19, "material": 0, "mode": 4}]}, {"name": "arm.lo.r_Cube.001_Material.002_0", "primitives": [{"attributes": {"NORMAL": 21, "POSITION": 20, "TEXCOORD_0": 22}, "indices": 23, "material": 0, "mode": 4}]}, {"name": "arm.hi.r_Cube.001_Material.002_0", "primitives": [{"attributes": {"NORMAL": 25, "POSITION": 24, "TEXCOORD_0": 26}, "indices": 27, "material": 0, "mode": 4}]}, {"name": "body_Cube.001_Material.002_0", "primitives": [{"attributes": {"NORMAL": 29, "POSITION": 28, "TEXCOORD_0": 30}, "indices": 31, "material": 0, "mode": 4}]}, {"name": "foot.l_Cube.001_Material.002_0", "primitives": [{"attributes": {"NORMAL": 33, "POSITION": 32, "TEXCOORD_0": 34}, "indices": 35, "material": 0, "mode": 4}]}, {"name": "leg.lo.l_Cube.001_Material.002_0", "primitives": [{"attributes": {"NORMAL": 37, "POSITION": 36, "TEXCOORD_0": 38}, "indices": 39, "material": 0, "mode": 4}]}, {"name": "leg.hi.l_Cube.001_Material.002_0", "primitives": [{"attributes": {"NORMAL": 41, "POSITION": 40, "TEXCOORD_0": 42}, "indices": 43, "material": 0, "mode": 4}]}, {"name": "foot.r_Cube.001_Material.002_0", "primitives": [{"attributes": {"NORMAL": 45, "POSITION": 44, "TEXCOORD_0": 46}, "indices": 47, "material": 0, "mode": 4}]}, {"name": "leg.lo.r_Cube.001_Material.002_0", "primitives": [{"attributes": {"NORMAL": 49, "POSITION": 48, "TEXCOORD_0": 50}, "indices": 51, "material": 0, "mode": 4}]}, {"name": "leg.hi.r_Cube.001_Material.002_0", "primitives": [{"attributes": {"NORMAL": 53, "POSITION": 52, "TEXCOORD_0": 54}, "indices": 55, "material": 0, "mode": 4}]}, {"name": "hips_Cube.001_Material.002_0", "primitives": [{"attributes": {"NORMAL": 57, "POSITION": 56, "TEXCOORD_0": 58}, "indices": 59, "material": 0, "mode": 4}]}], "nodes": [{"children": [1], "matrix": [1.0, 0.0, 0.0, 0.0, 0.0, 2.220446049250313e-16, -1.0, 0.0, 0.0, 1.0, 2.220446049250313e-16, 0.0, 0.0, 0.0, 0.0, 1.0], "name": "Sketchfab_model"}, {"children": [2], "matrix": [0.009999999776482582, 0.0, 0.0, 0.0, 0.0, 0.0, 0.009999999776482582, 0.0, 0.0, -0.009999999776482582, 0.0, 0.0, 0.0, 0.0, 0.0, 1.0], "name": "e38102809920458490d083b0916e46e5.fbx"}, {"children": [3], "name": "RootNode"}, {"children": [4], "matrix": [100.0, 0.0, 0.0, 0.0, 0.0, -1.629206793918314e-05, -99.99999999999868, 0.0, 0.0, 99.99999999999868, -1.629206793918314e-05, 0.0, 0.0, 0.0, 0.0, 1.0], "name": "Armature"}, {"children": [5], "name": "Object_4"}, {"children": [6], "name": "_rootJoint"}, {"children": [7, 34, 44, 54], "name": "hips_00", "rotation": [0.7071068286895752, 0.0, 0.0, 0.7071067094802856], "translation": [0.0, 2.6469779601696886e-23, 1.2816307544708252]}, {"children": [8, 12, 22, 32], "name": "spine_01", "rotation": [-0.05909288674592972, 1.1900103658035732e-07, -7.044422378754689e-09, 0.9982525110244751], "scale": [1.0, 1.0000001192092896, 1.0], "translation": [0.0, 0.2891221046447754, 0.0]}, {"children": [9, 10], "name": "head_02", "rotation": [0.11885736882686615, -4.2474107998097255e-14, 2.8337808544165455e-08, 0.9929113388061523], "scale": [1.0, 1.0, 0.9999999403953552], "translation": [3.552713678800501e-15, 0.8431679010391235, -2.2351741790771484e-08]}, {"name": "head_end_015", "rotation": [1.3877787807814457e-17, 2.6469779601696886e-23, -1.6543612251060553e-24, 1.0], "translation": [0.0, 0.3303660452365875, 0.0]}, {"children": [11], "matrix": [0.9999999999999716, 1.6543612251060553e-24, 2.3841860752326965e-07, 0.0, 2.8547156659737456e-08, 0.992805714229448, -0.11973543909298456, 0.0, -2.3670338414497243e-07, 0.11973545336656631, 0.9928058325810978, 0.0, -9.228878639078175e-08, -2.3787975311279297, 0.38708722591400146, 1.0], "name": "head_Cube.001"}, {"mesh": 0, "name": "head_Cube.001_Material.002_0"}, {"children": [13, 20], "name": "left_arm_03", "rotation": [0.10831549763679504, 0.06966264545917511, 0.934920072555542, -0.33066505193710327], "scale": [1.0000001192092896, 0.9999999403953552, 1.0000001192092896], "translation": [0.26206183433532715, 0.7089606523513794, -0.015944983810186386]}, {"children": [14, 18], "name": "left_forearm_04", "rotation": [0.05216981843113899, -0.016879852861166, -0.07636794447898865, 0.995570957660675], "scale": [1.0, 1.0, 0.9999998807907104], "translation": [3.5390257835388184e-08, 0.4039195775985718, 2.60770320892334e-08]}, {"children": [15, 16], "name": "left_wrist_05", "rotation": [0.06624304503202438, -0.003359974594786763, -0.03835046663880348, 0.9970605969429016], "scale": [0.9999999403953552, 1.0, 0.9999999403953552], "translation": [8.940696716308594e-08, 0.39220282435417175, 1.4901161193847656e-08]}, {"name": "left_wrist_end_016", "rotation": [2.7755575615628914e-17, -4.163336342344337e-17, -2.7755575615628914e-17, 1.0], "translation": [0.0, 0.1699666529893875, 0.0]}, {"children": [17], "matrix": [-0.8797117136685199, 0.4713876287353965, 0.062455157367338726, 0.0, -0.3744400954529744, -0.7676886513652713, 0.5200466431615275, 0.0, 0.2930897568294014, 0.4341055379305545, 0.8518513816269281, 0.0, 1.2334723472595215, 0.8946901559829712, -0.969758927822113, 1.0], "name": "hand.l_Cube.001"}, {"mesh": 1, "name": "hand.l_Cube.001_Material.002_0"}, {"children": [19], "matrix": [-0.8420002033078595, 0.5252981779787795, 0.12287132550929625, 0.0, -0.43782465966426204, -0.7984531063278284, 0.4132576033873762, 0.0, 0.3151904764135976, 0.2941669073307993, 0.9022862276360898, 0.0, 1.3092645406723022, 1.3093816041946411, -0.8408125638961792, 1.0], "name": "arm.lo.l_Cube.001"}, {"mesh": 2, "name": "arm.lo.l_Cube.001_Material.002_0"}, {"children": [21], "matrix": [-0.7578566096603535, 0.6333817819540858, 0.15646289996103513, 0.0, -0.5696569495218886, -0.759309938230977, 0.31454611483183287, 0.0, 0.3180316136237716, 0.1492506738631363, 0.9362583892598362, 0.0, 1.525004506111145, 1.5746830701828003, -0.6627934575080872, 1.0], "name": "arm.hi.l_Cube.002"}, {"mesh": 3, "name": "arm.hi.l_Cube.002_Material.002_0"}, {"children": [23, 30], "name": "right_arm_06", "rotation": [-0.10831575095653534, 0.06966256350278854, 0.9349201321601868, 0.33066505193710327], "scale": [0.9999998807907104, 0.9999999403953552, 0.9999999403953552], "translation": [-0.26206183433532715, 0.7089604139328003, -0.01594514772295952]}, {"children": [24, 28], "name": "right_forearm_07", "rotation": [0.05216989666223526, 0.0168798565864563, 0.07636789977550507, 0.995570957660675], "scale": [0.9999999403953552, 0.9999999403953552, 1.0], "translation": [2.7939677238464355e-09, 0.40391966700553894, 8.568167686462402e-08]}, {"children": [25, 26], "name": "right_wrist_08", "rotation": [0.06624304503202438, 0.0033599601592868567, 0.03835051879286766, 0.9970605969429016], "translation": [2.421438694000244e-08, 0.39220279455184937, -7.450580596923828e-09]}, {"name": "right_wrist_end_017", "rotation": [2.7755575615628914e-17, 6.938893903907228e-17, 4.163336342344337e-17, 1.0], "translation": [2.220446049250313e-16, 0.1699666529893875, 0.0]}, {"children": [27], "matrix": [-0.8797118683773133, -0.4713879815968915, -0.06245508674799426, 0.0, 0.3744402622096982, -0.7676884426241342, 0.5200467166224857, 0.0, -0.29308983783380893, 0.43410559553992456, 0.8518513243985004, 0.0, -1.2334723472595215, 0.8946897983551025, -0.9697586894035339, 1.0], "name": "hand.r_Cube.001"}, {"mesh": 4, "name": "hand.r_Cube.001_Material.002_0"}, {"children": [29], "matrix": [-0.842000153897439, -0.5252981471531286, -0.1228713107914703, 0.0, 0.437824484827611, -0.798452822906189, 0.4132576150592822, 0.0, -0.31519053595094015, 0.29416702986789, 0.9022861668882142, 0.0, -1.3092644214630127, 1.309381127357483, -0.8408122658729553, 1.0], "name": "arm.lo.r_Cube.001"}, {"mesh": 5, "name": "arm.lo.r_Cube.001_Material.002_0"}, {"children": [31], "matrix": [-0.7578569638787437, -0.6333820779935638, -0.15646303343893347, 0.0, 0.5696570843891247, -0.7593101082692403, 0.314546028593638, 0.0, -0.3180317042512492, 0.14925058720247925, 0.9362588179280215, 0.0, -1.525004506111145, 1.5746827125549316, -0.6627932190895081, 1.0], "name": "arm.hi.r_Cube.001"}, {"mesh": 6, "name": "arm.hi.r_Cube.001_Material.002_0"}, {"children": [33], "matrix": [0.9999999999999716, -1.4451872891232756e-15, 2.3841869278839805e-07, 0.0, -2.812843177672405e-08, 0.9930158931403629, 0.11797914367721919, 0.0, -2.3675357955435854e-07, -0.11797915774143497, 0.9930160115170749, 0.0, 4.4182836944628434e-08, -1.5597825050354004, -0.18531619012355804, 1.0], "name": "body_Cube.001"}, {"mesh": 7, "name": "body_Cube.001_Material.002_0"}, {"children": [35, 42], "name": "left_leg_09", "rotation": [0.0037679087836295366, -0.06477276980876923, 0.996140718460083, -0.05911000818014145], "scale": [0.9999968409538269, 0.9999997615814209, 0.9999960660934448], "translation": [0.13322851061820984, 0.050135016441345215, -3.2110033743038e-08]}, {"children": [36, 40], "name": "left_knee_010", "rotation": [0.035645756870508194, -0.0014809524873271585, -0.04483310505747795, 0.9983572363853455], "scale": [1.0, 1.0000001192092896, 1.0], "translation": [2.2035237634554505e-08, 0.5621617436408997, 5.3551048040390015e-09]}, {"children": [37, 38], "name": "left_foot_011", "rotation": [0.5561344623565674, -0.05440739169716835, 0.04990100488066673, 0.827806830406189], "translation": [9.778887033462524e-09, 0.6571747064590454, 3.259629011154175e-09]}, {"name": "left_foot_end_018", "rotation": [-5.551115123125783e-17, 1.3877787807814457e-17, 7.703719777548943e-34, 1.0], "translation": [-8.326672684688674e-17, 0.22860123217105865, -1.3877787807814457e-17]}, {"children": [39], "matrix": [-0.9860945826145426, 0.16571581463818472, 0.012725635925840853, 0.0, -0.05961907524310367, -0.4241553392774613, 0.9036248192859572, 0.0, 0.1551426804451703, 0.8903014851589645, 0.42813741209699635, 0.0, 0.23955221474170685, 0.11451274156570435, -0.06595633924007416, 1.0], "name": "foot.l_Cube.001"}, {"mesh": 8, "name": "foot.l_Cube.001_Material.002_0"}, {"children": [41], "matrix": [-0.9995050793535296, 0.028801262791321103, 0.012904298513090634, 0.0, -0.029498738546796986, -0.9979043106787232, -0.05759590254684045, 0.0, 0.011218424399540605, -0.057948078397209654, 0.9982603851566714, 0.0, 0.2228308767080307, 0.7666643261909485, 0.11492209136486053, 1.0], "name": "leg.lo.l_Cube.001"}, {"mesh": 9, "name": "leg.lo.l_Cube.001_Material.002_0"}, {"children": [43], "matrix": [-0.9929867424858191, 0.11727562754955093, 0.015164277856964017, 0.0, -0.11825153470371648, -0.9846213166028474, -0.12859982219546753, 0.0, -0.0001505536757206882, -0.1294911639647746, 0.9915842913127695, 0.0, 0.2897770404815674, 1.2956604957580566, 0.16924495995044708, 1.0], "name": "leg.hi.l_Cube.001"}, {"mesh": 10, "name": "leg.hi.l_Cube.001_Material.002_0"}, {"children": [45, 52], "name": "right_leg_012", "rotation": [-0.0037679087836295366, -0.06477276980876923, 0.996140718460083, 0.05911000818014145], "scale": [0.9999968409538269, 0.9999997615814209, 0.9999960660934448], "translation": [-0.13322851061820984, 0.050135016441345215, -3.2110033743038e-08]}, {"children": [46, 50], "name": "right_knee_013", "rotation": [0.035645756870508194, 0.0014809524873271585, 0.04483310505747795, 0.9983572363853455], "scale": [1.0, 1.0000001192092896, 1.0], "translation": [-2.2035237634554505e-08, 0.5621617436408997, 5.3551048040390015e-09]}, {"children": [47, 48], "name": "right_foot_014", "rotation": [0.5561344623565674, 0.05440739169716835, -0.04990100488066673, 0.827806830406189], "translation": [-9.778887033462524e-09, 0.6571747064590454, 3.259629011154175e-09]}, {"name": "right_foot_end_019", "rotation": [-5.551115123125783e-17, -1.3877787807814457e-17, -7.703719777548943e-34, 1.0], "translation": [8.326672684688674e-17, 0.22860123217105865, -1.3877787807814457e-17]}, {"children": [49], "matrix": [-0.9860945826145426, -0.16571581463818472, -0.012725635925840853, 0.0, 0.05961907524310367, -0.4241553392774613, 0.9036248192859572, 0.0, -0.1551426804451703, 0.8903014851589645, 0.42813741209699635, 0.0, -0.23955221474170685, 0.11451274156570435, -0.06595633924007416, 1.0], "name": "foot.r_Cube.001"}, {"mesh": 11, "name": "foot.r_Cube.001_Material.002_0"}, {"children": [51], "matrix": [-0.9995050793535296, -0.028801262791321103, -0.012904298513090634, 0.0, 0.029498738546796986, -0.9979043106787232, -0.05759590254684045, 0.0, -0.011218424399540605, -0.057948078397209654, 0.9982603851566714, 0.0, -0.2228308767080307, 0.7666643261909485, 0.11492209136486053, 1.0], "name": "leg.lo.r_Cube.001"}, {"mesh": 12, "name": "leg.lo.r_Cube.001_Material.002_0"}, {"children": [53], "matrix": [-0.9929867424858191, -0.11727562754955093, -0.015164277856964017, 0.0, 0.11825153470371648, -0.9846213166028474, -0.12859982219546753, 0.0, 0.0001505536757206882, -0.1294911639647746, 0.9915842913127695, 0.0, -0.2897770404815674, 1.2956604957580566, 0.16924495995044708, 1.0], "name": "leg.hi.r_Cube.001"}, {"mesh": 13, "name": "leg.hi.r_Cube.001_Material.002_0"}, {"children": [55], "matrix": [1.0, 0.0, 0.0, 0.0, 0.0, 0.9999999999999971, -7.549790126404328e-08, 0.0, 0.0, 7.549790126404328e-08, 0.9999999999999971, 0.0, 0.0, -1.2816307544708252, 0.0, 1.0], "name": "hips_Cube.001"}, {"mesh": 14, "name": "hips_Cube.001_Material.002_0"}], "samplers": [{"magFilter": 9728, "minFilter": 9728, "wrapS": 10497, "wrapT": 10497}], "scene": 0, "scenes": [{"name": "Sketchfab_Scene", "nodes": [0]}], "skins": [{"inverseBindMatrices": 60, "joints": [5, 6, 7, 8, 9, 12, 13, 14, 15, 22, 23, 24, 25, 34, 35, 36, 37, 44, 45, 46, 47], "skeleton": 5}], "textures": [{"sampler": 0, "source": 0}]}